P1
# Created by GIMP version 2.10.2 PNM plug-in
13 13
0 0 0 0 0 0 1 0 0 0 0 0 0
0 0 0 0 0 1 0 1 0 1 0 0 0
0 0 0 0 1 0 0 0 1 1 0 0 0
0 0 0 1 0 0 0 0 0 1 0 0 0
0 0 1 0 0 0 0 0 0 0 1 0 0
0 1 0 0 0 0 0 0 0 0 0 1 0
1 1 1 1 1 1 1 1 1 1 1 1 1
0 1 0 0 0 0 0 0 0 0 0 1 0
0 1 0 0 0 0 0 0 0 0 0 1 0
0 1 0 0 0 0 0 0 0 0 0 1 0
0 1 0 0 0 1 1 1 0 0 0 1 0
0 1 0 0 0 1 0 1 0 0 0 1 0
0 1 1 1 1 1 1 1 1 1 1 1 0